<?xml version="1.0" standalone="no"?>
<!DOCTYPE svg PUBLIC "-//W3C//DTD SVG 20010904//EN"
 "http://www.w3.org/TR/2001/REC-SVG-20010904/DTD/svg10.dtd">
<svg version="1.0" xmlns="http://www.w3.org/2000/svg"
 width="80.000000pt" height="80.000000pt" viewBox="0 0 200.000000 200.000000"
 preserveAspectRatio="xMidYMid meet">
<metadata>
Created by potrace 1.16, written by Peter Selinger 2001-2019
</metadata>
<g transform="translate(0.000000,200.000000) scale(0.023419,-0.020408)"
fill="#206475" stroke="none">
<path d="M4110 9719 c-1075 -597 -3534 -2011 -3965 -2280 -60 -38 -118 -80
-129 -95 -18 -25 -18 -90 -12 -2393 4 -1301 9 -2394 12 -2429 l6 -63 71 -48
c308 -207 3724 -2181 4134 -2390 l43 -21 52 26 c398 201 3817 2178 4125 2385
l71 48 6 63 c3 35 8 1128 12 2430 l6 2366 -21 31 c-12 16 -68 58 -124 92 -791
480 -4087 2360 -4133 2359 -5 -1 -74 -37 -154 -81z m370 -550 c417 -459 2092
-2343 2098 -2360 2 -5 -994 -9 -2308 -9 -1320 0 -2310 4 -2308 9 3 9 159 186
1168 1321 964 1085 1125 1263 1145 1257 5 -2 98 -100 205 -218z m-1011 -186
c-14 -16 -88 -100 -165 -188 -505 -582 -1628 -1840 -1722 -1928 l-30 -29 -273
120 c-468 206 -742 333 -753 351 -6 9 75 56 1304 761 1202 689 1642 940 1654
940 6 0 -2 -12 -15 -27z m1928 -165 c459 -260 2147 -1226 2412 -1379 117 -69
213 -129 213 -134 -1 -14 -861 -393 -1000 -441 l-54 -19 -57 61 c-122 129
-1771 1989 -1833 2067 -16 20 -27 37 -24 37 2 0 157 -86 343 -192z m-4838
-1878 c573 -249 828 -370 838 -396 5 -14 -17 -78 -290 -859 -461 -1315 -766
-2176 -777 -2188 -14 -16 -20 546 -20 1987 0 1318 3 1556 16 1556 2 0 107 -45
233 -100z m7664 -72 c10 -267 8 -3413 -2 -3403 -21 23 -1084 3049 -1079 3074
6 28 204 124 793 382 149 65 273 119 276 119 3 0 9 -78 12 -172z m-1563 -383
c0 -9 -1399 -2476 -2078 -3665 -165 -289 -306 -525 -312 -525 -13 0 -315 525
-1315 2285 -646 1137 -1075 1897 -1075 1905 0 3 1076 5 2390 5 1315 0 2390 -2
2390 -5z m-4823 -555 c365 -634 1195 -2099 1633 -2880 358 -640 483 -870 476
-877 -18 -18 -3539 465 -3560 488 -11 12 802 2346 1162 3339 90 249 93 254
107 238 7 -7 89 -146 182 -308z m5154 68 c396 -1098 1169 -3311 1161 -3320
-25 -26 -587 -111 -2402 -362 -1159 -161 -1184 -165 -1189 -160 -2 2 1 9 6 16
6 7 113 195 238 418 490 871 1997 3519 2063 3624 20 33 26 37 34 23 5 -9 45
-117 89 -239z m-5826 -3769 c657 -84 2919 -404 2937 -415 9 -6 11 -1384 3
-1384 -3 0 -326 185 -718 411 -1100 636 -1516 875 -1982 1144 -236 135 -437
253 -445 261 -13 13 -11 14 15 9 17 -3 102 -14 190 -26z m6370 6 c-40 -33
-646 -394 -1065 -635 -184 -106 -711 -410 -1171 -676 -460 -266 -843 -486
-852 -490 -16 -6 -17 46 -17 684 0 393 4 693 9 696 12 8 2095 305 2976 425 77
10 142 19 145 20 3 0 -8 -11 -25 -24z"/>
</g>
</svg>
